<?xml version="1.0" standalone="no"?>
<!DOCTYPE svg PUBLIC "-//W3C//DTD SVG 20010904//EN"
 "http://www.w3.org/TR/2001/REC-SVG-20010904/DTD/svg10.dtd">
<svg version="1.0" xmlns="http://www.w3.org/2000/svg"
 width="385.000000pt" height="386.000000pt" viewBox="0 0 385.000000 386.000000"
 preserveAspectRatio="xMidYMid meet">

<g transform="translate(0.000000,386.000000) scale(0.100000,-0.100000)"
fill="#000000" stroke="none">
<path d="M0 1930 l0 -1930 1925 0 1925 0 0 1930 0 1930 -1925 0 -1925 0 0
-1930z m2021 1290 c78 -15 170 -63 233 -123 45 -43 56 -59 56 -85 0 -18 5 -32
11 -32 7 0 54 -21 106 -46 225 -110 416 -304 517 -526 33 -71 86 -227 86 -252
0 -7 23 -18 52 -25 66 -17 151 -96 167 -156 17 -62 13 -135 -10 -185 -44 -98
-104 -133 -239 -140 l-95 -5 -6 -90 c-12 -172 -86 -365 -192 -502 -54 -70
-165 -178 -227 -220 -460 -313 -1083 -189 -1388 275 -90 137 -139 282 -158
463 l-6 66 -79 6 c-163 13 -254 103 -254 252 1 78 22 130 72 177 30 29 107 67
136 68 10 0 17 8 17 19 0 36 51 184 90 264 112 225 310 419 534 522 41 19 79
35 85 35 6 0 11 19 11 42 0 36 6 46 43 81 49 45 161 105 221 117 59 11 155 12
217 0z"/>
<path d="M1832 3005 c-23 -7 -54 -20 -67 -29 l-25 -16 0 -191 c0 -207 -6 -235
-55 -257 -47 -22 -84 -15 -121 22 -34 34 -34 34 -34 130 0 53 -4 96 -8 96 -4
0 -44 -22 -89 -50 -236 -145 -401 -392 -440 -659 -8 -58 -17 -108 -20 -111 -2
-3 -44 -7 -91 -10 -81 -5 -87 -6 -90 -28 -8 -55 -71 -52 1125 -52 742 0 1111
3 1124 10 10 6 19 19 19 30 0 33 -38 50 -117 50 l-72 0 -6 58 c-16 145 -62
280 -135 398 -61 99 -124 170 -211 240 -64 51 -176 124 -191 124 -3 0 -8 -45
-10 -101 -3 -99 -3 -101 -36 -130 -46 -42 -103 -41 -143 2 l-29 31 0 198 c0
154 -3 200 -14 209 -25 21 -129 51 -175 50 -25 0 -65 -6 -89 -14z"/>
<path d="M1738 1643 c-21 -2 -38 -5 -38 -7 0 -2 8 -18 17 -37 23 -45 21 -108
-5 -150 -57 -92 -189 -95 -256 -6 -16 22 -21 43 -21 91 l0 62 -58 -13 c-32 -8
-97 -28 -145 -46 -84 -32 -87 -34 -84 -63 2 -16 18 -66 37 -111 90 -224 267
-389 497 -466 86 -28 104 -31 233 -31 163 -1 225 12 352 74 136 67 244 164
330 297 38 59 88 179 98 234 l7 37 -72 27 c-40 15 -104 36 -143 46 -40 10 -72
19 -72 19 0 0 0 -31 0 -70 0 -67 -1 -71 -37 -107 -33 -32 -44 -37 -95 -40 -46
-3 -65 0 -91 16 -69 44 -91 130 -53 202 l20 36 -52 7 c-54 6 -305 6 -369 -1z
m138 -490 c53 -3 118 -1 158 6 65 11 70 11 91 -9 53 -50 32 -109 -52 -148 -49
-22 -72 -26 -148 -26 -76 0 -99 4 -147 26 -38 18 -62 36 -72 57 -21 40 -20 44
11 81 19 23 31 30 47 25 12 -3 62 -8 112 -12z"/>
</g>
</svg>
